<?xml version="1.0" encoding="UTF-8"?>
<svg width="950px" height="950px" viewBox="0 0 950 950" version="1.1" xmlns="http://www.w3.org/2000/svg" xmlns:xlink="http://www.w3.org/1999/xlink">
    <title>Path</title>
    <g id="Page-1" stroke="none" stroke-width="1" fill="none" fill-rule="evenodd">
        <g id="noun_Cross_835836" transform="translate(-65.000000, 0.000000)" fill="#8C7256" fill-rule="nonzero">
            <path d="M612.972,475 L1000.774,87.199 C1019.337,68.635 1019.337,38.538 1000.774,19.974 L995.026,14.226 C976.463,-4.337 946.366,-4.337 927.802,14.226 L540,402.028 L152.199,14.227 C133.636,-4.336 103.538,-4.336 84.975,14.227 L79.227,19.975 C60.664,38.539 60.664,68.636 79.227,87.2 L467.028,475 L79.227,862.802 C60.664,881.365 60.664,911.463 79.227,930.027 L84.974,935.774 C103.537,954.337 133.635,954.337 152.199,935.774 L540,547.972 L927.802,935.774 C946.365,954.337 976.463,954.337 995.027,935.774 L1000.774,930.027 C1019.337,911.464 1019.337,881.366 1000.774,862.802 L612.972,475 Z" id="Path"></path>
        </g>
    </g>
</svg>