<?xml version="1.0" encoding="UTF-8"?>
<svg width="80px" height="66px" viewBox="0 0 80 66" version="1.1" xmlns="http://www.w3.org/2000/svg" xmlns:xlink="http://www.w3.org/1999/xlink">
    <title>noun_menu_1108888</title>
    <g id="Page-1" stroke="none" stroke-width="1" fill="none" fill-rule="evenodd">
        <g id="Artboard" transform="translate(-10.000000, -17.000000)" fill="#8C7256" fill-rule="nonzero">
            <g id="noun_menu_1108888" transform="translate(10.000000, 17.000000)">
                <g id="Group" transform="translate(0.000000, 0.637820)">
                    <path d="M74.9999995,0.36217 C77.7614,0.36217 79.9999995,2.60067 79.9999995,5.36217 C79.9999995,8.12366 77.7614,10.36217 74.9999995,10.36217 L4.9999995,10.36217 C2.238599,10.36217 -4.99999999e-07,8.12366 -4.99999999e-07,5.36217 C-4.99999999e-07,2.60067 2.238599,0.36217 4.9999995,0.36217 L74.9999995,0.36217 Z M74.9999995,27.36217 C77.7614,27.36217 79.9999995,29.60067 79.9999995,32.3622 C79.9999995,35.1237 77.7614,37.3622 74.9999995,37.3622 L4.9999995,37.3622 C2.238599,37.3622 -4.99999999e-07,35.1237 -4.99999999e-07,32.3622 C-4.99999999e-07,29.60067 2.238599,27.36217 4.9999995,27.36217 L74.9999995,27.36217 Z M74.9999995,54.3622 C77.7614,54.3622 79.9999995,56.6007 79.9999995,59.3622 C79.9999995,62.1237 77.7614,64.3622 74.9999995,64.3622 L4.9999995,64.3622 C2.238599,64.3622 -4.99999999e-07,62.1237 -4.99999999e-07,59.3622 C-4.99999999e-07,56.6007 2.238599,54.3622 4.9999995,54.3622 L74.9999995,54.3622 Z" id="Shape"></path>
                </g>
            </g>
        </g>
    </g>
</svg>